<svg xmlns="http://www.w3.org/2000/svg" viewBox="0 0 976 888" width="976" height="888">
  <title>Standalone SVG of the Chinese character 字 in 正楷 style</title>

  <!-- All geometry is drawn as paths; no text, fonts, or external assets are used. -->
  <g fill="#000">
    <!-- Top 宀 component -->
    <path d="
      M230 236
      H478
      L450 175
      L502 166
      L528 236
      H766
      V377
      H720
      V280
      H276
      V377
      H230
      Z
    "/>

    <!-- Lower 子 component -->
    <path d="
      M327 347
      H667
      V390
      L529 474
      V517
      H778
      V562
      H529
      V688
      C529 711 525 726 515 735
      C503 746 484 748 462 748
      H396
      L385 706
      C410 707 437 708 457 708
      C475 708 483 700 483 681
      V562
      H218
      V517
      H483
      V455
      L598 390
      H327
      Z
    "/>
  </g>
</svg>